<svg xmlns="http://www.w3.org/2000/svg" width="1600" height="900" viewBox="0 0 1600 900" fill="none">
  <defs>
    <linearGradient id="bg3" x1="60" y1="80" x2="1500" y2="840" gradientUnits="userSpaceOnUse">
      <stop stop-color="#0B132B"/>
      <stop offset="0.45" stop-color="#1C2541"/>
      <stop offset="1" stop-color="#3A506B"/>
    </linearGradient>
    <linearGradient id="card" x1="230" y1="180" x2="1060" y2="760" gradientUnits="userSpaceOnUse">
      <stop stop-color="#F8FAFC"/>
      <stop offset="1" stop-color="#E2E8F0"/>
    </linearGradient>
    <linearGradient id="accent" x1="1080" y1="150" x2="1440" y2="760" gradientUnits="userSpaceOnUse">
      <stop stop-color="#38BDF8"/>
      <stop offset="1" stop-color="#0EA5E9"/>
    </linearGradient>
  </defs>

  <rect width="1600" height="900" fill="url(#bg3)"/>
  <circle cx="220" cy="160" r="120" fill="#38BDF8" opacity="0.18"/>
  <circle cx="1430" cy="720" r="170" fill="#22D3EE" opacity="0.22"/>
  <circle cx="1320" cy="210" r="130" fill="#67E8F9" opacity="0.14"/>

  <rect x="180" y="150" width="930" height="620" rx="32" fill="url(#card)"/>
  <rect x="220" y="190" width="850" height="70" rx="18" fill="#0F172A"/>
  <rect x="250" y="218" width="180" height="14" rx="7" fill="#94A3B8"/>
  <rect x="450" y="218" width="120" height="14" rx="7" fill="#64748B"/>
  <rect x="590" y="218" width="80" height="14" rx="7" fill="#475569"/>

  <rect x="240" y="300" width="380" height="190" rx="22" fill="#FFFFFF"/>
  <rect x="266" y="328" width="180" height="14" rx="7" fill="#1E293B"/>
  <rect x="266" y="354" width="130" height="12" rx="6" fill="#64748B"/>
  <rect x="266" y="390" width="22" height="70" rx="8" fill="#38BDF8"/>
  <rect x="298" y="372" width="22" height="88" rx="8" fill="#0EA5E9"/>
  <rect x="330" y="346" width="22" height="114" rx="8" fill="#0284C7"/>
  <rect x="362" y="408" width="22" height="52" rx="8" fill="#7DD3FC"/>
  <path d="M404 444L448 410L492 424L540 376L584 394" stroke="#0F172A" stroke-width="7" stroke-linecap="round" stroke-linejoin="round"/>
  <circle cx="584" cy="394" r="6" fill="#0F172A"/>

  <rect x="650" y="300" width="400" height="190" rx="22" fill="#FFFFFF"/>
  <rect x="676" y="328" width="170" height="14" rx="7" fill="#1E293B"/>
  <rect x="676" y="354" width="120" height="12" rx="6" fill="#64748B"/>
  <rect x="676" y="386" width="344" height="20" rx="10" fill="#E2E8F0"/>
  <rect x="676" y="418" width="280" height="20" rx="10" fill="#CBD5E1"/>
  <rect x="676" y="450" width="320" height="20" rx="10" fill="#94A3B8"/>

  <rect x="240" y="520" width="810" height="220" rx="22" fill="#FFFFFF"/>
  <rect x="266" y="548" width="220" height="14" rx="7" fill="#1E293B"/>
  <rect x="266" y="574" width="150" height="12" rx="6" fill="#64748B"/>
  <rect x="266" y="610" width="230" height="100" rx="16" fill="#DBEAFE"/>
  <rect x="520" y="610" width="230" height="100" rx="16" fill="#CCFBF1"/>
  <rect x="774" y="610" width="250" height="100" rx="16" fill="#FDE68A"/>
  <path d="M338 662L368 634L398 656L432 620L466 642" stroke="#1E3A8A" stroke-width="7" stroke-linecap="round" stroke-linejoin="round"/>
  <path d="M592 666L618 634L644 654L674 622L712 648" stroke="#134E4A" stroke-width="7" stroke-linecap="round" stroke-linejoin="round"/>
  <path d="M838 668L868 636L900 654L934 624L972 644" stroke="#78350F" stroke-width="7" stroke-linecap="round" stroke-linejoin="round"/>

  <rect x="1140" y="150" width="320" height="620" rx="32" fill="url(#accent)"/>
  <rect x="1180" y="210" width="240" height="110" rx="18" fill="#ECFEFF" opacity="0.95"/>
  <rect x="1210" y="242" width="100" height="12" rx="6" fill="#0C4A6E"/>
  <rect x="1210" y="266" width="170" height="10" rx="5" fill="#075985"/>

  <rect x="1180" y="340" width="240" height="140" rx="18" fill="#EFF6FF" opacity="0.95"/>
  <rect x="1220" y="376" width="34" height="70" rx="10" fill="#0284C7"/>
  <rect x="1268" y="356" width="34" height="90" rx="10" fill="#0369A1"/>
  <rect x="1316" y="332" width="34" height="114" rx="10" fill="#0EA5E9"/>
  <path d="M1220 354L1260 324L1302 338L1350 294" stroke="#E0F2FE" stroke-width="8" stroke-linecap="round" stroke-linejoin="round"/>

  <rect x="1180" y="500" width="240" height="220" rx="18" fill="#F0FDFA" opacity="0.95"/>
  <circle cx="1250" cy="570" r="38" fill="#14B8A6"/>
  <circle cx="1340" cy="570" r="38" fill="#06B6D4"/>
  <circle cx="1295" cy="640" r="38" fill="#0EA5E9"/>
  <path d="M1237 570L1247 580L1264 563" stroke="#CCFBF1" stroke-width="7" stroke-linecap="round" stroke-linejoin="round"/>
  <path d="M1327 570L1337 580L1354 563" stroke="#CFFAFE" stroke-width="7" stroke-linecap="round" stroke-linejoin="round"/>
  <path d="M1282 640L1292 650L1309 633" stroke="#E0F2FE" stroke-width="7" stroke-linecap="round" stroke-linejoin="round"/>
</svg>
