<svg xmlns="http://www.w3.org/2000/svg" width="1600" height="900" viewBox="0 0 1600 900" fill="none">
  <defs>
    <linearGradient id="bg2" x1="60" y1="80" x2="1500" y2="840" gradientUnits="userSpaceOnUse">
      <stop stop-color="#DFF4FF"/>
      <stop offset="0.5" stop-color="#9CC8FF"/>
      <stop offset="1" stop-color="#FCA5A5"/>
    </linearGradient>
    <linearGradient id="phone2" x1="600" y1="140" x2="980" y2="770" gradientUnits="userSpaceOnUse">
      <stop stop-color="#0F172A"/>
      <stop offset="1" stop-color="#1E293B"/>
    </linearGradient>
    <linearGradient id="screen2" x1="640" y1="210" x2="940" y2="700" gradientUnits="userSpaceOnUse">
      <stop stop-color="#F8FAFC"/>
      <stop offset="1" stop-color="#DBEAFE"/>
    </linearGradient>
  </defs>

  <rect width="1600" height="900" fill="url(#bg2)"/>
  <circle cx="220" cy="150" r="120" fill="#FEF3C7" opacity="0.6"/>
  <circle cx="1450" cy="190" r="160" fill="#C4B5FD" opacity="0.4"/>
  <circle cx="1360" cy="770" r="180" fill="#F9A8D4" opacity="0.5"/>

  <rect x="580" y="120" width="420" height="680" rx="54" fill="url(#phone2)"/>
  <rect x="635" y="198" width="310" height="530" rx="30" fill="url(#screen2)"/>
  <rect x="735" y="156" width="110" height="12" rx="6" fill="#334155"/>
  <circle cx="790" cy="762" r="28" fill="#334155"/>
  <circle cx="790" cy="762" r="8" fill="#94A3B8"/>

  <rect x="675" y="250" width="230" height="90" rx="18" fill="#2563EB" opacity="0.92"/>
  <rect x="695" y="276" width="110" height="12" rx="6" fill="#DBEAFE"/>
  <rect x="695" y="300" width="180" height="10" rx="5" fill="#BFDBFE"/>

  <rect x="675" y="360" width="230" height="110" rx="18" fill="#0EA5E9" opacity="0.9"/>
  <path d="M710 430L742 392L772 420L810 376L848 406" stroke="#ECFEFF" stroke-width="10" stroke-linecap="round" stroke-linejoin="round"/>
  <circle cx="848" cy="406" r="7" fill="#ECFEFF"/>

  <rect x="675" y="490" width="230" height="190" rx="18" fill="#7C3AED" opacity="0.9"/>
  <rect x="702" y="520" width="58" height="58" rx="14" fill="#E9D5FF"/>
  <rect x="776" y="520" width="58" height="58" rx="14" fill="#C4B5FD"/>
  <rect x="850" y="520" width="28" height="58" rx="10" fill="#A78BFA"/>
  <rect x="702" y="596" width="170" height="14" rx="7" fill="#EDE9FE"/>
  <rect x="702" y="624" width="140" height="12" rx="6" fill="#DDD6FE"/>

  <rect x="200" y="260" width="260" height="140" rx="24" fill="#FFFFFF" opacity="0.9"/>
  <circle cx="260" cy="330" r="28" fill="#FB7185"/>
  <path d="M250 330L259 339L276 321" stroke="#FFF" stroke-width="8" stroke-linecap="round" stroke-linejoin="round"/>
  <rect x="300" y="304" width="130" height="14" rx="7" fill="#1E293B"/>
  <rect x="300" y="330" width="100" height="12" rx="6" fill="#64748B"/>

  <rect x="1120" y="220" width="280" height="170" rx="24" fill="#FFFFFF" opacity="0.88"/>
  <rect x="1160" y="260" width="28" height="90" rx="10" fill="#14B8A6"/>
  <rect x="1202" y="232" width="28" height="118" rx="10" fill="#06B6D4"/>
  <rect x="1244" y="280" width="28" height="70" rx="10" fill="#0EA5E9"/>
  <rect x="1286" y="250" width="28" height="100" rx="10" fill="#2563EB"/>
  <path d="M1160 236L1200 208L1246 226L1300 194" stroke="#334155" stroke-width="8" stroke-linecap="round" stroke-linejoin="round"/>
  <circle cx="1300" cy="194" r="8" fill="#334155"/>

  <rect x="1080" y="520" width="320" height="180" rx="24" fill="#FFFFFF" opacity="0.9"/>
  <circle cx="1150" cy="590" r="30" fill="#F59E0B"/>
  <circle cx="1230" cy="590" r="30" fill="#EF4444"/>
  <circle cx="1310" cy="590" r="30" fill="#22C55E"/>
  <rect x="1130" y="644" width="220" height="14" rx="7" fill="#475569"/>
  <rect x="1130" y="670" width="170" height="12" rx="6" fill="#94A3B8"/>
</svg>
